<svg data-name="google (1)" xmlns="http://www.w3.org/2000/svg" width="36.384" height="36.384" viewBox="0 0 36.384 36.384">
    <path data-name="Path 3095" d="M8.527 111.285a9.6 9.6 0 0 1 1.359-4.937v-6.133H3.754a18.2 18.2 0 0 0 0 22.141h6.133v-6.133a9.605 9.605 0 0 1-1.36-4.938z" transform="translate(0 -93.094)" style="fill:#fbbd00"/>
    <path data-name="Path 3096" d="M200.264 374.314 196 378.578l4.264 4.264a18.054 18.054 0 0 0 11.07-3.754v-6.127h-6.127a9.662 9.662 0 0 1-4.943 1.353z" transform="translate(-182.072 -346.458)" style="fill:#0f9d58"/>
    <path data-name="Path 3097" d="m58.956 325.477-6.133 6.133a18.5 18.5 0 0 0 1.577 1.79 18.073 18.073 0 0 0 12.863 5.328V330.2a9.668 9.668 0 0 1-8.307-4.723z" transform="translate(-49.069 -302.348)" style="fill:#31aa52"/>
    <path data-name="Path 3098" d="M274.192 201.494a18.357 18.357 0 0 0-.3-3.3l-.16-.874H256v8.527h8.631a9.62 9.62 0 0 1-3.687 3.954l6.127 6.127a18.487 18.487 0 0 0 1.793-1.575 18.073 18.073 0 0 0 5.328-12.859z" transform="translate(-237.808 -183.302)" style="fill:#3c79e6"/>
    <path data-name="Path 3099" d="m207.1 11.358.754.754 6.03-6.03-.754-.754A18.073 18.073 0 0 0 200.264 0L196 4.264l4.264 4.264a9.6 9.6 0 0 1 6.836 2.83z" transform="translate(-182.072)" style="fill:#cf2d48"/>
    <path data-name="Path 3100" d="M67.26 8.527V0A18.073 18.073 0 0 0 54.4 5.328a18.463 18.463 0 0 0-1.575 1.793l6.133 6.133a9.669 9.669 0 0 1 8.3-4.727z" transform="translate(-49.068)" style="fill:#eb4132"/>
</svg>
